# File exported by Houdini 19.0.455 (www.sidefx.com)
# 135 points
# 390 vertices
# 130 primitives
# Bounds: [-1.14619851, -1.04755747, -2.77965951] to [1.14619851, 1.04755747, 2.77965951]
g 
v -0.889497519 -0.129717484 2.77965951
v -1.07129347 -0.129717484 2.77965951
v -0.980395555 0.0277225152 2.77965951
v -0.889497519 -0.129717484 0.453472495
v -1.07129347 -0.129717484 0.453472495
v -0.980395555 0.0277225152 0.453472495
v -0.917253494 0.0891005099 0.473316491
v -0.868497491 0.06425751 0.473316491
v -0.829805493 0.0255645141 0.473316491
v -0.804962516 -0.0231914893 0.473316491
v -0.796402454 -0.0772374868 0.473316491
v -0.804962516 -0.13128449 0.473316491
v -0.829805493 -0.180040479 0.473316491
v -0.868497491 -0.21873349 0.473316491
v -0.917253494 -0.243576497 0.473316491
v -0.971300483 -0.252136499 0.473316491
v -1.02534652 -0.243576497 0.473316491
v -1.07410252 -0.21873349 0.473316491
v -1.11279547 -0.180040479 0.473316491
v -1.13763845 -0.13128449 0.473316491
v -1.14619851 -0.0772374868 0.473316491
v -1.13763845 -0.0231914893 0.473316491
v -1.11279547 0.0255645141 0.473316491
v -1.07410252 0.06425751 0.473316491
v -1.02534652 0.0891005099 0.473316491
v -0.971300483 0.0976605117 0.473316491
v -0.971299529 -0.0772374868 -0.179321527
v 0.0804965049 -0.129717484 2.77938151
v -0.101299495 -0.129717484 2.77938151
v -0.0104015023 0.0277225152 2.77938151
v 0.0804965049 -0.129717484 -1.59259844
v -0.101299495 -0.129717484 -1.59259844
v -0.0104015023 0.0277225152 -1.59259844
v 0.0527404994 0.0891005099 -1.55537152
v 0.101496503 0.06425751 -1.55537152
v 0.140189499 0.0255645141 -1.55537152
v 0.165031508 -0.0231914893 -1.55537152
v 0.173591495 -0.0772374868 -1.55537152
v 0.165031508 -0.13128449 -1.55537152
v 0.140189499 -0.180040479 -1.55537152
v 0.101496503 -0.21873349 -1.55537152
v 0.0527404994 -0.243576497 -1.55537152
v -0.00130648911 -0.252136499 -1.55537152
v -0.0553534925 -0.243576497 -1.55537152
v -0.104109496 -0.21873349 -1.55537152
v -0.142802507 -0.180040479 -1.55537152
v -0.167644501 -0.13128449 -1.55537152
v -0.176204503 -0.0772374868 -1.55537152
v -0.167644501 -0.0231914893 -1.55537152
v -0.142802507 0.0255645141 -1.55537152
v -0.104109496 0.06425751 -1.55537152
v -0.0553534925 0.0891005099 -1.55537152
v -0.00130648911 0.0976605117 -1.55537152
v -0.00130648911 -0.0772374868 -2.77965951
v 0.0804965049 -0.925139427 2.77928042
v -0.101299495 -0.925139427 2.77928042
v -0.0104015023 -0.76769948 2.77928042
v 0.0804965049 -0.925139427 0.133388519
v -0.101299495 -0.925139427 0.133388519
v -0.0104015023 -0.76769948 0.133388519
v 0.0527404994 -0.706320524 0.155867517
v 0.101496503 -0.731163502 0.155867517
v 0.140189499 -0.769856453 0.155867517
v 0.165031508 -0.818612456 0.155867517
v 0.173591495 -0.872659445 0.155867517
v 0.165031508 -0.92670548 0.155867517
v 0.140189499 -0.975462437 0.155867517
v 0.101496503 -1.01415551 0.155867517
v 0.052739501 -1.03899741 0.155867517
v -0.00130648911 -1.04755747 0.155867517
v -0.0553534925 -1.03899741 0.155867517
v -0.104109496 -1.01415551 0.155867517
v -0.142802507 -0.975462437 0.155867517
v -0.167644501 -0.92670548 0.155867517
v -0.176204503 -0.872659445 0.155867517
v -0.167644501 -0.818612456 0.155867517
v -0.142802507 -0.769856453 0.155867517
v -0.104109496 -0.731163502 0.155867517
v -0.0553534925 -0.706321478 0.155867517
v -0.00130648911 -0.697760463 0.155867517
v -0.00130648911 -0.872659445 -0.583399534
v 0.0804965049 0.820178509 2.77928042
v -0.101299495 0.820178509 2.77928042
v -0.0104015023 0.977619529 2.77928042
v 0.0804965049 0.820178509 0.133388519
v -0.101299495 0.820178509 0.133388519
v -0.0104015023 0.977619529 0.133388519
v 0.0527404994 1.03899753 0.155867517
v 0.101496503 1.01415455 0.155867517
v 0.140189499 0.975461483 0.155867517
v 0.165031508 0.92670548 0.155867517
v 0.173591495 0.872658491 0.155867517
v 0.165031508 0.818612456 0.155867517
v 0.140189499 0.769856453 0.155867517
v 0.101496503 0.731163502 0.155867517
v 0.052739501 0.706320524 0.155867517
v -0.00130648911 0.697760463 0.155867517
v -0.0553534925 0.706320524 0.155867517
v -0.104109496 0.731163502 0.155867517
v -0.142802507 0.769856453 0.155867517
v -0.167644501 0.818612456 0.155867517
v -0.176204503 0.872658491 0.155867517
v -0.167644501 0.92670548 0.155867517
v -0.142802507 0.975461483 0.155867517
v -0.104109496 1.01415455 0.155867517
v -0.0553534925 1.03899753 0.155867517
v -0.00130648911 1.04755747 0.155867517
v -0.00130648911 0.872658491 -0.583399534
v 1.05310345 -0.129717484 2.77965951
v 0.871306479 -0.129717484 2.77965951
v 0.962204516 0.0277225152 2.77965951
v 1.05310345 -0.129717484 0.453472495
v 0.871307492 -0.129717484 0.453472495
v 0.962205529 0.0277225152 0.453472495
v 1.02534652 0.0891005099 0.473316491
v 1.07410252 0.06425751 0.473316491
v 1.11279559 0.0255645141 0.473316491
v 1.1376375 -0.0231914893 0.473316491
v 1.14619851 -0.0772374868 0.473316491
v 1.1376375 -0.13128449 0.473316491
v 1.11279559 -0.180040479 0.473316491
v 1.07410252 -0.21873349 0.473316491
v 1.02534652 -0.243576497 0.473316491
v 0.971300483 -0.252136499 0.473316491
v 0.917253494 -0.243576497 0.473316491
v 0.868498504 -0.21873349 0.473316491
v 0.82980448 -0.180040479 0.473316491
v 0.804962516 -0.13128449 0.473316491
v 0.796401501 -0.0772374868 0.473316491
v 0.804962516 -0.0231914893 0.473316491
v 0.82980448 0.0255645141 0.473316491
v 0.868498504 0.06425751 0.473316491
v 0.917253494 0.0891005099 0.473316491
v 0.971300483 0.0976605117 0.473316491
v 0.971301496 -0.0772374868 -0.179321527
vt 0.375 0.3125 0
vt 0.458332986 0.3125 0
vt 0.375 0.688440025 0
vt 0.458332986 0.688440025 0
vt 0.541666985 0.3125 0
vt 0.541666985 0.688440025 0
vt 0.625 0.3125 0
vt 0.625 0.688440025 0
vt 0.25 0.5 0
vt 0.275000006 0.5 0
vt 0.5 1 0
vt 0.300000012 0.5 0
vt 0.324999988 0.5 0
vt 0.349999994 0.5 0
vt 0.375 0.5 0
vt 0.400000006 0.5 0
vt 0.425000012 0.5 0
vt 0.449999988 0.5 0
vt 0.474999994 0.5 0
vt 0.5 0.5 0
vt 0.524999976 0.5 0
vt 0.550000012 0.5 0
vt 0.574999988 0.5 0
vt 0.600000024 0.5 0
vt 0.625 0.5 0
vt 0.649999976 0.5 0
vt 0.675000012 0.5 0
vt 0.699999988 0.5 0
vt 0.725000024 0.5 0
vt 0.75 0.5 0
vn 0 -1 0
vn 0 -1 0
vn 0 -1 0
vn 0 -1 0
vn 0 -1 0
vn 0 -1 0
vn -0.866024971 0.500001013 0
vn -0.866024971 0.500001013 0
vn -0.866025984 0.499998987 0
vn -0.866025984 0.499998987 0
vn -0.866024971 0.500001013 0
vn -0.866025984 0.499998987 0
vn 0.866025984 0.5 0
vn 0.866025984 0.5 0
vn 0.866025984 0.499998987 0
vn 0.866025984 0.499998987 0
vn 0.866025984 0.5 0
vn 0.866025984 0.499998987 0
vn 0.298483998 0.918641984 -0.258852005
vn 0.567754984 0.781440973 -0.258852005
vn -9.00000032e-06 -1.99999999e-06 -1
vn 0.567754984 0.781440973 -0.258852005
vn 0.781446993 0.567746997 -0.258850992
vn -9.00000032e-06 -1.99999999e-06 -1
vn 0.781446993 0.567746997 -0.258850992
vn 0.918641984 0.298485994 -0.258850992
vn -9.00000032e-06 -1.99999999e-06 -1
vn 0.918641984 0.298485994 -0.258850992
vn 0.965916991 0 -0.258850992
vn -9.00000032e-06 -1.99999999e-06 -1
vn 0.965916991 0 -0.258850992
vn 0.918641984 -0.298485994 -0.258850992
vn -9.00000032e-06 -1.99999999e-06 -1
vn 0.918641984 -0.298485994 -0.258850992
vn 0.781446993 -0.567746997 -0.258850992
vn -9.00000032e-06 -1.99999999e-06 -1
vn 0.781446993 -0.567746997 -0.258850992
vn 0.567753971 -0.781441987 -0.258852005
vn -9.00000032e-06 -1.99999999e-06 -1
vn 0.567753971 -0.781441987 -0.258852005
vn 0.298485011 -0.918641984 -0.258852005
vn -9.00000032e-06 -1.99999999e-06 -1
vn 0.298485011 -0.918641984 -0.258852005
vn 0 -0.965916991 -0.258852988
vn -9.00000032e-06 -1.99999999e-06 -1
vn 0 -0.965916991 -0.258852988
vn -0.298485994 -0.918640971 -0.258852988
vn -9.00000032e-06 -1.99999999e-06 -1
vn -0.298485994 -0.918640971 -0.258852988
vn -0.567752004 -0.781443 -0.258852988
vn -9.00000032e-06 -1.99999999e-06 -1
vn -0.567752004 -0.781443 -0.258852988
vn -0.781443 -0.567752004 -0.258854002
vn -9.00000032e-06 -1.99999999e-06 -1
vn -0.781443 -0.567752004 -0.258854002
vn -0.918639004 -0.298489988 -0.258854002
vn -9.00000032e-06 -1.99999999e-06 -1
vn -0.918639004 -0.298489988 -0.258854002
vn -0.965916991 0 -0.258854002
vn -9.00000032e-06 -1.99999999e-06 -1
vn -0.965916991 0 -0.258854002
vn -0.918640018 0.298489988 -0.258852988
vn -9.00000032e-06 -1.99999999e-06 -1
vn -0.918640018 0.298489988 -0.258852988
vn -0.781443 0.567752004 -0.258854002
vn -9.00000032e-06 -1.99999999e-06 -1
vn -0.781443 0.567752004 -0.258854002
vn -0.567752004 0.781443 -0.258852988
vn -9.00000032e-06 -1.99999999e-06 -1
vn -0.567752004 0.781443 -0.258852988
vn -0.298485994 0.918640971 -0.258852988
vn -9.00000032e-06 -1.99999999e-06 -1
vn -0.298485994 0.918640971 -0.258852988
vn -1.99999999e-06 0.965916991 -0.258852988
vn -9.00000032e-06 -1.99999999e-06 -1
vn -1.99999999e-06 0.965916991 -0.258852988
vn 0.298483998 0.918641984 -0.258852005
vn -9.00000032e-06 -1.99999999e-06 -1
vn 0 -1 0
vn 0 -1 0
vn 0 -1 0
vn 0 -1 0
vn 0 -1 0
vn 0 -1 0
vn -0.866024971 0.5 0
vn -0.866024971 0.5 0
vn -0.866025984 0.5 0
vn -0.866025984 0.5 0
vn -0.866024971 0.5 0
vn -0.866025984 0.5 0
vn 0.866024971 0.5 0
vn 0.866024971 0.5 0
vn 0.866025984 0.5 0
vn 0.866025984 0.5 0
vn 0.866024971 0.5 0
vn 0.866025984 0.5 0
vn 0.305909991 0.941497982 -0.141421005
vn 0.58187902 0.800885022 -0.141421005
vn 0 0 -1
vn 0.58187902 0.800885022 -0.141421005
vn 0.800886989 0.58187598 -0.141421005
vn 0 0 -1
vn 0.800886989 0.58187598 -0.141421005
vn 0.941497028 0.305913001 -0.141421005
vn 0 0 -1
vn 0.941497028 0.305913001 -0.141421005
vn 0.989950001 0 -0.141421005
vn 0 0 -1
vn 0.989950001 0 -0.141421005
vn 0.941497028 -0.305913001 -0.141421005
vn 0 0 -1
vn 0.941497028 -0.305913001 -0.141421005
vn 0.800886989 -0.581876993 -0.141421005
vn 0 0 -1
vn 0.800886989 -0.581876993 -0.141421005
vn 0.58187902 -0.800885022 -0.141421005
vn 0 0 -1
vn 0.58187902 -0.800885022 -0.141421005
vn 0.305911988 -0.941497982 -0.141421005
vn 0 0 -1
vn 0.305911988 -0.941497982 -0.141421005
vn 0 -0.989950001 -0.141421005
vn 0 0 -1
vn 0 -0.989950001 -0.141421005
vn -0.305911988 -0.941497982 -0.141421005
vn 0 0 -1
vn -0.305911988 -0.941497982 -0.141421005
vn -0.581876993 -0.800886989 -0.141421005
vn 0 0 -1
vn -0.581876993 -0.800886989 -0.141421005
vn -0.800885022 -0.58187902 -0.141421005
vn 0 0 -1
vn -0.800885022 -0.58187902 -0.141421005
vn -0.941497982 -0.305909991 -0.141421005
vn 0 0 -1
vn -0.941497982 -0.305909991 -0.141421005
vn -0.989950001 0 -0.141421005
vn 0 0 -1
vn -0.989950001 0 -0.141421005
vn -0.941497982 0.305911005 -0.141421005
vn 0 0 -1
vn -0.941497982 0.305911005 -0.141421005
vn -0.800885022 0.58187902 -0.141421005
vn 0 0 -1
vn -0.800885022 0.58187902 -0.141421005
vn -0.581876993 0.800886989 -0.141421005
vn 0 0 -1
vn -0.581876993 0.800886989 -0.141421005
vn -0.305911005 0.941497982 -0.141421005
vn 0 0 -1
vn -0.305911005 0.941497982 -0.141421005
vn -1.99999999e-06 0.989950001 -0.141421005
vn 0 0 -1
vn -1.99999999e-06 0.989950001 -0.141421005
vn 0.305909991 0.941497982 -0.141421005
vn 0 0 -1
vn 0 -1 0
vn 0 -1 0
vn 0 -1 0
vn 0 -1 0
vn 0 -1 0
vn 0 -1 0
vn -0.866025984 0.5 0
vn -0.866025984 0.5 0
vn -0.866025984 0.5 0
vn -0.866025984 0.5 0
vn -0.866025984 0.5 0
vn -0.866025984 0.5 0
vn 0.866024971 0.5 0
vn 0.866024971 0.5 0
vn 0.866024971 0.5 0
vn 0.866024971 0.5 0
vn 0.866024971 0.5 0
vn 0.866024971 0.5 0
vn 0.300714999 0.925508022 -0.230228007
vn 0.57199502 0.787284017 -0.230228007
vn 6.00000021e-06 9.99999997e-07 -1
vn 0.57199502 0.787284017 -0.230228007
vn 0.787284017 0.57199502 -0.230228007
vn 6.00000021e-06 9.99999997e-07 -1
vn 0.787284017 0.57199502 -0.230228007
vn 0.925508022 0.300714999 -0.230228007
vn 6.00000021e-06 9.99999997e-07 -1
vn 0.925508022 0.300714999 -0.230228007
vn 0.973137021 0 -0.230228007
vn 6.00000021e-06 9.99999997e-07 -1
vn 0.973137021 0 -0.230228007
vn 0.925508022 -0.300714999 -0.230228007
vn 6.00000021e-06 9.99999997e-07 -1
vn 0.925508022 -0.300714999 -0.230228007
vn 0.78728497 -0.57199502 -0.230228007
vn 6.00000021e-06 9.99999997e-07 -1
vn 0.78728497 -0.57199502 -0.230228007
vn 0.571994007 -0.78728497 -0.230228007
vn 6.00000021e-06 9.99999997e-07 -1
vn 0.571994007 -0.78728497 -0.230228007
vn 0.300713986 -0.925508976 -0.230228007
vn 6.00000021e-06 9.99999997e-07 -1
vn 0.300713986 -0.925508976 -0.230228007
vn 0 -0.973137021 -0.230229005
vn 6.00000021e-06 9.99999997e-07 -1
vn 0 -0.973137021 -0.230229005
vn -0.300713986 -0.925508976 -0.230228007
vn 6.00000021e-06 9.99999997e-07 -1
vn -0.300713986 -0.925508976 -0.230228007
vn -0.571994007 -0.78728497 -0.230228007
vn 6.00000021e-06 9.99999997e-07 -1
vn -0.571994007 -0.78728497 -0.230228007
vn -0.787284017 -0.57199502 -0.230228007
vn 6.00000021e-06 9.99999997e-07 -1
vn -0.787284017 -0.57199502 -0.230228007
vn -0.925508022 -0.300716013 -0.230228007
vn 6.00000021e-06 9.99999997e-07 -1
vn -0.925508022 -0.300716013 -0.230228007
vn -0.973137021 0 -0.230228007
vn 6.00000021e-06 9.99999997e-07 -1
vn -0.973137021 0 -0.230228007
vn -0.925508022 0.300716013 -0.230228007
vn 6.00000021e-06 9.99999997e-07 -1
vn -0.925508022 0.300716013 -0.230228007
vn -0.787284017 0.571995974 -0.230228007
vn 6.00000021e-06 9.99999997e-07 -1
vn -0.787284017 0.571995974 -0.230228007
vn -0.57199502 0.787284017 -0.230228007
vn 6.00000021e-06 9.99999997e-07 -1
vn -0.57199502 0.787284017 -0.230228007
vn -0.300714999 0.925508022 -0.230228007
vn 6.00000021e-06 9.99999997e-07 -1
vn -0.300714999 0.925508022 -0.230228007
vn -9.99999997e-07 0.973137021 -0.230228007
vn 6.00000021e-06 9.99999997e-07 -1
vn -9.99999997e-07 0.973137021 -0.230228007
vn 0.300714999 0.925508022 -0.230228007
vn 6.00000021e-06 9.99999997e-07 -1
vn 0 -1 0
vn 0 -1 0
vn 0 -1 0
vn 0 -1 0
vn 0 -1 0
vn 0 -1 0
vn -0.866024971 0.5 0
vn -0.866024971 0.5 0
vn -0.866024971 0.5 0
vn -0.866024971 0.5 0
vn -0.866024971 0.5 0
vn -0.866024971 0.5 0
vn 0.866024971 0.5 0
vn 0.866024971 0.5 0
vn 0.866024971 0.5 0
vn 0.866024971 0.5 0
vn 0.866024971 0.5 0
vn 0.866024971 0.5 0
vn 0.300713986 0.925508976 -0.230228007
vn 0.57199502 0.787284017 -0.230228007
vn 4.99999987e-06 1.99999999e-06 -1
vn 0.57199502 0.787284017 -0.230228007
vn 0.78728497 0.57199502 -0.230228007
vn 4.99999987e-06 1.99999999e-06 -1
vn 0.78728497 0.57199502 -0.230228007
vn 0.925508022 0.300714999 -0.230228007
vn 4.99999987e-06 1.99999999e-06 -1
vn 0.925508022 0.300714999 -0.230228007
vn 0.973137021 0 -0.230228007
vn 4.99999987e-06 1.99999999e-06 -1
vn 0.973137021 0 -0.230228007
vn 0.925508022 -0.300714999 -0.230228007
vn 4.99999987e-06 1.99999999e-06 -1
vn 0.925508022 -0.300714999 -0.230228007
vn 0.787284017 -0.57199502 -0.230228007
vn 4.99999987e-06 1.99999999e-06 -1
vn 0.787284017 -0.57199502 -0.230228007
vn 0.57199502 -0.787284017 -0.230228007
vn 4.99999987e-06 1.99999999e-06 -1
vn 0.57199502 -0.787284017 -0.230228007
vn 0.300716013 -0.925508022 -0.230228007
vn 4.99999987e-06 1.99999999e-06 -1
vn 0.300716013 -0.925508022 -0.230228007
vn 0 -0.973137021 -0.230228007
vn 4.99999987e-06 1.99999999e-06 -1
vn 0 -0.973137021 -0.230228007
vn -0.300716013 -0.925508022 -0.230228007
vn 4.99999987e-06 1.99999999e-06 -1
vn -0.300716013 -0.925508022 -0.230228007
vn -0.57199502 -0.787284017 -0.230228007
vn 4.99999987e-06 1.99999999e-06 -1
vn -0.57199502 -0.787284017 -0.230228007
vn -0.787284017 -0.571995974 -0.230228007
vn 4.99999987e-06 1.99999999e-06 -1
vn -0.787284017 -0.571995974 -0.230228007
vn -0.925508022 -0.300716013 -0.230228007
vn 4.99999987e-06 1.99999999e-06 -1
vn -0.925508022 -0.300716013 -0.230228007
vn -0.973137021 0 -0.230229005
vn 4.99999987e-06 1.99999999e-06 -1
vn -0.973137021 0 -0.230229005
vn -0.925508022 0.300716013 -0.230229005
vn 4.99999987e-06 1.99999999e-06 -1
vn -0.925508022 0.300716013 -0.230229005
vn -0.787284017 0.57199502 -0.230228007
vn 4.99999987e-06 1.99999999e-06 -1
vn -0.787284017 0.57199502 -0.230228007
vn -0.57199502 0.787284017 -0.230228007
vn 4.99999987e-06 1.99999999e-06 -1
vn -0.57199502 0.787284017 -0.230228007
vn -0.300714999 0.925508022 -0.230228007
vn 4.99999987e-06 1.99999999e-06 -1
vn -0.300714999 0.925508022 -0.230228007
vn -9.99999997e-07 0.973137021 -0.230228007
vn 4.99999987e-06 1.99999999e-06 -1
vn -9.99999997e-07 0.973137021 -0.230228007
vn 0.300713986 0.925508976 -0.230228007
vn 4.99999987e-06 1.99999999e-06 -1
vn 0 -1 0
vn 0 -1 0
vn 0 -1 0
vn 0 -1 0
vn 0 -1 0
vn 0 -1 0
vn -0.866025984 0.5 0
vn -0.866025984 0.5 0
vn -0.866025984 0.499998987 0
vn -0.866025984 0.499998987 0
vn -0.866025984 0.5 0
vn -0.866025984 0.499998987 0
vn 0.866025984 0.5 0
vn 0.866025984 0.5 0
vn 0.866025984 0.499998987 0
vn 0.866025984 0.499998987 0
vn 0.866025984 0.5 0
vn 0.866025984 0.499998987 0
vn 0.298483998 0.918641984 -0.258852988
vn 0.567754984 0.781440973 -0.258852005
vn -7.0000001e-06 0 -1
vn 0.567754984 0.781440973 -0.258852005
vn 0.78144598 0.567749023 -0.258850992
vn -7.0000001e-06 0 -1
vn 0.78144598 0.567749023 -0.258850992
vn 0.918641984 0.298485994 -0.258850992
vn -7.0000001e-06 0 -1
vn 0.918641984 0.298485994 -0.258850992
vn 0.965916991 0 -0.258850992
vn -7.0000001e-06 0 -1
vn 0.965916991 0 -0.258850992
vn 0.918641984 -0.298485994 -0.258850992
vn -7.0000001e-06 0 -1
vn 0.918641984 -0.298485994 -0.258850992
vn 0.78144598 -0.567749023 -0.258850992
vn -7.0000001e-06 0 -1
vn 0.78144598 -0.567749023 -0.258850992
vn 0.567753971 -0.781441987 -0.258852005
vn -7.0000001e-06 0 -1
vn 0.567753971 -0.781441987 -0.258852005
vn 0.298485011 -0.918640971 -0.258852988
vn -7.0000001e-06 0 -1
vn 0.298485011 -0.918640971 -0.258852988
vn 0 -0.965916991 -0.258852988
vn -7.0000001e-06 0 -1
vn 0 -0.965916991 -0.258852988
vn -0.298487008 -0.918640971 -0.258852988
vn -7.0000001e-06 0 -1
vn -0.298487008 -0.918640971 -0.258852988
vn -0.567752004 -0.781443 -0.258852988
vn -7.0000001e-06 0 -1
vn -0.567752004 -0.781443 -0.258852988
vn -0.781441987 -0.567753017 -0.258852988
vn -7.0000001e-06 0 -1
vn -0.781441987 -0.567753017 -0.258852988
vn -0.918640018 -0.298487991 -0.258854002
vn -7.0000001e-06 0 -1
vn -0.918640018 -0.298487991 -0.258854002
vn -0.965915978 0 -0.258854002
vn -7.0000001e-06 0 -1
vn -0.965915978 0 -0.258854002
vn -0.918640018 0.298487991 -0.258854002
vn -7.0000001e-06 0 -1
vn -0.918640018 0.298487991 -0.258854002
vn -0.781441987 0.567753017 -0.258852988
vn -7.0000001e-06 0 -1
vn -0.781441987 0.567753017 -0.258852988
vn -0.567752004 0.781443 -0.258852988
vn -7.0000001e-06 0 -1
vn -0.567752004 0.781443 -0.258852988
vn -0.298485994 0.918640971 -0.258852988
vn -7.0000001e-06 0 -1
vn -0.298485994 0.918640971 -0.258852988
vn -1.99999999e-06 0.965916991 -0.258852988
vn -7.0000001e-06 0 -1
vn -1.99999999e-06 0.965916991 -0.258852988
vn 0.298483998 0.918641984 -0.258852988
vn -7.0000001e-06 0 -1
g polySurface7
usemtl /mat/initialShadingGroup
f 1/1/1 2/2/2 4/3/3
f 4/3/4 2/2/5 5/4/6
f 2/2/7 3/5/8 5/4/9
f 5/4/10 3/5/11 6/6/12
f 3/5/13 1/7/14 6/6/15
f 6/6/16 1/7/17 4/8/18
f 7/9/19 8/10/20 27/11/21
f 8/10/22 9/12/23 27/11/24
f 9/12/25 10/13/26 27/11/27
f 10/13/28 11/14/29 27/11/30
f 11/14/31 12/15/32 27/11/33
f 12/15/34 13/16/35 27/11/36
f 13/16/37 14/17/38 27/11/39
f 14/17/40 15/18/41 27/11/42
f 15/18/43 16/19/44 27/11/45
f 16/19/46 17/20/47 27/11/48
f 17/20/49 18/21/50 27/11/51
f 18/21/52 19/22/53 27/11/54
f 19/22/55 20/23/56 27/11/57
f 20/23/58 21/24/59 27/11/60
f 21/24/61 22/25/62 27/11/63
f 22/25/64 23/26/65 27/11/66
f 23/26/67 24/27/68 27/11/69
f 24/27/70 25/28/71 27/11/72
f 25/28/73 26/29/74 27/11/75
f 26/29/76 7/30/77 27/11/78
f 28/1/79 29/2/80 31/3/81
f 31/3/82 29/2/83 32/4/84
f 29/2/85 30/5/86 32/4/87
f 32/4/88 30/5/89 33/6/90
f 30/5/91 28/7/92 33/6/93
f 33/6/94 28/7/95 31/8/96
f 34/9/97 35/10/98 54/11/99
f 35/10/100 36/12/101 54/11/102
f 36/12/103 37/13/104 54/11/105
f 37/13/106 38/14/107 54/11/108
f 38/14/109 39/15/110 54/11/111
f 39/15/112 40/16/113 54/11/114
f 40/16/115 41/17/116 54/11/117
f 41/17/118 42/18/119 54/11/120
f 42/18/121 43/19/122 54/11/123
f 43/19/124 44/20/125 54/11/126
f 44/20/127 45/21/128 54/11/129
f 45/21/130 46/22/131 54/11/132
f 46/22/133 47/23/134 54/11/135
f 47/23/136 48/24/137 54/11/138
f 48/24/139 49/25/140 54/11/141
f 49/25/142 50/26/143 54/11/144
f 50/26/145 51/27/146 54/11/147
f 51/27/148 52/28/149 54/11/150
f 52/28/151 53/29/152 54/11/153
f 53/29/154 34/30/155 54/11/156
f 55/1/157 56/2/158 58/3/159
f 58/3/160 56/2/161 59/4/162
f 56/2/163 57/5/164 59/4/165
f 59/4/166 57/5/167 60/6/168
f 57/5/169 55/7/170 60/6/171
f 60/6/172 55/7/173 58/8/174
f 61/9/175 62/10/176 81/11/177
f 62/10/178 63/12/179 81/11/180
f 63/12/181 64/13/182 81/11/183
f 64/13/184 65/14/185 81/11/186
f 65/14/187 66/15/188 81/11/189
f 66/15/190 67/16/191 81/11/192
f 67/16/193 68/17/194 81/11/195
f 68/17/196 69/18/197 81/11/198
f 69/18/199 70/19/200 81/11/201
f 70/19/202 71/20/203 81/11/204
f 71/20/205 72/21/206 81/11/207
f 72/21/208 73/22/209 81/11/210
f 73/22/211 74/23/212 81/11/213
f 74/23/214 75/24/215 81/11/216
f 75/24/217 76/25/218 81/11/219
f 76/25/220 77/26/221 81/11/222
f 77/26/223 78/27/224 81/11/225
f 78/27/226 79/28/227 81/11/228
f 79/28/229 80/29/230 81/11/231
f 80/29/232 61/30/233 81/11/234
f 82/1/235 83/2/236 85/3/237
f 85/3/238 83/2/239 86/4/240
f 83/2/241 84/5/242 86/4/243
f 86/4/244 84/5/245 87/6/246
f 84/5/247 82/7/248 87/6/249
f 87/6/250 82/7/251 85/8/252
f 88/9/253 89/10/254 108/11/255
f 89/10/256 90/12/257 108/11/258
f 90/12/259 91/13/260 108/11/261
f 91/13/262 92/14/263 108/11/264
f 92/14/265 93/15/266 108/11/267
f 93/15/268 94/16/269 108/11/270
f 94/16/271 95/17/272 108/11/273
f 95/17/274 96/18/275 108/11/276
f 96/18/277 97/19/278 108/11/279
f 97/19/280 98/20/281 108/11/282
f 98/20/283 99/21/284 108/11/285
f 99/21/286 100/22/287 108/11/288
f 100/22/289 101/23/290 108/11/291
f 101/23/292 102/24/293 108/11/294
f 102/24/295 103/25/296 108/11/297
f 103/25/298 104/26/299 108/11/300
f 104/26/301 105/27/302 108/11/303
f 105/27/304 106/28/305 108/11/306
f 106/28/307 107/29/308 108/11/309
f 107/29/310 88/30/311 108/11/312
f 109/1/313 110/2/314 112/3/315
f 112/3/316 110/2/317 113/4/318
f 110/2/319 111/5/320 113/4/321
f 113/4/322 111/5/323 114/6/324
f 111/5/325 109/7/326 114/6/327
f 114/6/328 109/7/329 112/8/330
f 115/9/331 116/10/332 135/11/333
f 116/10/334 117/12/335 135/11/336
f 117/12/337 118/13/338 135/11/339
f 118/13/340 119/14/341 135/11/342
f 119/14/343 120/15/344 135/11/345
f 120/15/346 121/16/347 135/11/348
f 121/16/349 122/17/350 135/11/351
f 122/17/352 123/18/353 135/11/354
f 123/18/355 124/19/356 135/11/357
f 124/19/358 125/20/359 135/11/360
f 125/20/361 126/21/362 135/11/363
f 126/21/364 127/22/365 135/11/366
f 127/22/367 128/23/368 135/11/369
f 128/23/370 129/24/371 135/11/372
f 129/24/373 130/25/374 135/11/375
f 130/25/376 131/26/377 135/11/378
f 131/26/379 132/27/380 135/11/381
f 132/27/382 133/28/383 135/11/384
f 133/28/385 134/29/386 135/11/387
f 134/29/388 115/30/389 135/11/390
