# This file uses centimeters as units for non-parametric coordinates.

mtllib SunMesh.mtl
g default
v 1.104107 -0.227378 -2.096884
v 1.285903 -0.227378 -2.096884
v 1.195005 -0.069938 -2.096884
v 1.104107 -0.227378 0.229303
v 1.285903 -0.227378 0.229303
v 1.195005 -0.069938 0.229303
v 1.131863 -0.008560 0.209459
v 1.083107 -0.033403 0.209459
v 1.044415 -0.072096 0.209459
v 1.019572 -0.120852 0.209459
v 1.011012 -0.174898 0.209459
v 1.019572 -0.228945 0.209459
v 1.044415 -0.277701 0.209459
v 1.083107 -0.316394 0.209459
v 1.131863 -0.341237 0.209459
v 1.185910 -0.349797 0.209459
v 1.239956 -0.341237 0.209459
v 1.288712 -0.316394 0.209459
v 1.327405 -0.277701 0.209459
v 1.352248 -0.228945 0.209459
v 1.360808 -0.174898 0.209459
v 1.352248 -0.120852 0.209459
v 1.327405 -0.072096 0.209459
v 1.288712 -0.033403 0.209459
v 1.239956 -0.008560 0.209459
v 1.185910 0.000000 0.209459
v 1.185909 -0.174898 0.862097
v 0.134113 -0.227378 -2.096606
v 0.315909 -0.227378 -2.096606
v 0.225011 -0.069938 -2.096606
v 0.134113 -0.227378 2.275374
v 0.315909 -0.227378 2.275374
v 0.225011 -0.069938 2.275374
v 0.161869 -0.008560 2.238147
v 0.113113 -0.033403 2.238147
v 0.074420 -0.072096 2.238147
v 0.049578 -0.120852 2.238147
v 0.041018 -0.174898 2.238147
v 0.049578 -0.228945 2.238147
v 0.074420 -0.277701 2.238147
v 0.113113 -0.316394 2.238147
v 0.161869 -0.341237 2.238147
v 0.215916 -0.349797 2.238147
v 0.269963 -0.341237 2.238147
v 0.318719 -0.316394 2.238147
v 0.357412 -0.277701 2.238147
v 0.382254 -0.228945 2.238147
v 0.390814 -0.174898 2.238147
v 0.382254 -0.120852 2.238147
v 0.357412 -0.072096 2.238147
v 0.318719 -0.033403 2.238147
v 0.269963 -0.008560 2.238147
v 0.215916 0.000000 2.238147
v 0.215916 -0.174898 3.462435
v 0.134113 -1.022800 -2.096505
v 0.315909 -1.022800 -2.096505
v 0.225011 -0.865360 -2.096505
v 0.134113 -1.022800 0.549387
v 0.315909 -1.022800 0.549387
v 0.225011 -0.865360 0.549387
v 0.161869 -0.803981 0.526908
v 0.113113 -0.828824 0.526908
v 0.074420 -0.867517 0.526908
v 0.049578 -0.916273 0.526908
v 0.041018 -0.970320 0.526908
v 0.049578 -1.024366 0.526908
v 0.074420 -1.073123 0.526908
v 0.113113 -1.111816 0.526908
v 0.161870 -1.136658 0.526908
v 0.215916 -1.145218 0.526908
v 0.269963 -1.136658 0.526908
v 0.318719 -1.111816 0.526908
v 0.357412 -1.073123 0.526908
v 0.382254 -1.024366 0.526908
v 0.390814 -0.970320 0.526908
v 0.382254 -0.916273 0.526908
v 0.357412 -0.867517 0.526908
v 0.318719 -0.828824 0.526908
v 0.269963 -0.803982 0.526908
v 0.215916 -0.795421 0.526908
v 0.215916 -0.970320 1.266175
v 0.134113 0.722518 -2.096505
v 0.315909 0.722518 -2.096505
v 0.225011 0.879959 -2.096505
v 0.134113 0.722518 0.549387
v 0.315909 0.722518 0.549387
v 0.225011 0.879959 0.549387
v 0.161869 0.941337 0.526908
v 0.113113 0.916494 0.526908
v 0.074420 0.877801 0.526908
v 0.049578 0.829045 0.526908
v 0.041018 0.774998 0.526908
v 0.049578 0.720952 0.526908
v 0.074420 0.672196 0.526908
v 0.113113 0.633503 0.526908
v 0.161870 0.608660 0.526908
v 0.215916 0.600100 0.526908
v 0.269963 0.608660 0.526908
v 0.318719 0.633503 0.526908
v 0.357412 0.672196 0.526908
v 0.382254 0.720952 0.526908
v 0.390814 0.774998 0.526908
v 0.382254 0.829045 0.526908
v 0.357412 0.877801 0.526908
v 0.318719 0.916494 0.526908
v 0.269963 0.941337 0.526908
v 0.215916 0.949897 0.526908
v 0.215916 0.774998 1.266175
v -0.838494 -0.227378 -2.096884
v -0.656697 -0.227378 -2.096884
v -0.747595 -0.069938 -2.096884
v -0.838494 -0.227378 0.229303
v -0.656698 -0.227378 0.229303
v -0.747596 -0.069938 0.229303
v -0.810737 -0.008560 0.209459
v -0.859493 -0.033403 0.209459
v -0.898186 -0.072096 0.209459
v -0.923028 -0.120852 0.209459
v -0.931589 -0.174898 0.209459
v -0.923028 -0.228945 0.209459
v -0.898186 -0.277701 0.209459
v -0.859493 -0.316394 0.209459
v -0.810737 -0.341237 0.209459
v -0.756691 -0.349797 0.209459
v -0.702644 -0.341237 0.209459
v -0.653889 -0.316394 0.209459
v -0.615195 -0.277701 0.209459
v -0.590353 -0.228945 0.209459
v -0.581792 -0.174898 0.209459
v -0.590353 -0.120852 0.209459
v -0.615195 -0.072096 0.209459
v -0.653889 -0.033403 0.209459
v -0.702644 -0.008560 0.209459
v -0.756691 0.000000 0.209459
v -0.756692 -0.174898 0.862097
vt 0.375000 0.312500
vt 0.458333 0.312500
vt 0.375000 0.688440
vt 0.458333 0.688440
vt 0.541667 0.312500
vt 0.541667 0.688440
vt 0.625000 0.312500
vt 0.625000 0.688440
vt 0.250000 0.500000
vt 0.275000 0.500000
vt 0.500000 1.000000
vt 0.300000 0.500000
vt 0.325000 0.500000
vt 0.350000 0.500000
vt 0.375000 0.500000
vt 0.400000 0.500000
vt 0.425000 0.500000
vt 0.450000 0.500000
vt 0.475000 0.500000
vt 0.500000 0.500000
vt 0.525000 0.500000
vt 0.550000 0.500000
vt 0.575000 0.500000
vt 0.600000 0.500000
vt 0.625000 0.500000
vt 0.650000 0.500000
vt 0.675000 0.500000
vt 0.700000 0.500000
vt 0.725000 0.500000
vt 0.750000 0.500000
vt 0.375000 0.312500
vt 0.458333 0.312500
vt 0.375000 0.688440
vt 0.458333 0.688440
vt 0.541667 0.312500
vt 0.541667 0.688440
vt 0.625000 0.312500
vt 0.625000 0.688440
vt 0.250000 0.500000
vt 0.275000 0.500000
vt 0.500000 1.000000
vt 0.300000 0.500000
vt 0.325000 0.500000
vt 0.350000 0.500000
vt 0.375000 0.500000
vt 0.400000 0.500000
vt 0.425000 0.500000
vt 0.450000 0.500000
vt 0.475000 0.500000
vt 0.500000 0.500000
vt 0.525000 0.500000
vt 0.550000 0.500000
vt 0.575000 0.500000
vt 0.600000 0.500000
vt 0.625000 0.500000
vt 0.650000 0.500000
vt 0.675000 0.500000
vt 0.700000 0.500000
vt 0.725000 0.500000
vt 0.750000 0.500000
vt 0.375000 0.312500
vt 0.458333 0.312500
vt 0.375000 0.688440
vt 0.458333 0.688440
vt 0.541667 0.312500
vt 0.541667 0.688440
vt 0.625000 0.312500
vt 0.625000 0.688440
vt 0.250000 0.500000
vt 0.275000 0.500000
vt 0.500000 1.000000
vt 0.300000 0.500000
vt 0.325000 0.500000
vt 0.350000 0.500000
vt 0.375000 0.500000
vt 0.400000 0.500000
vt 0.425000 0.500000
vt 0.450000 0.500000
vt 0.475000 0.500000
vt 0.500000 0.500000
vt 0.525000 0.500000
vt 0.550000 0.500000
vt 0.575000 0.500000
vt 0.600000 0.500000
vt 0.625000 0.500000
vt 0.650000 0.500000
vt 0.675000 0.500000
vt 0.700000 0.500000
vt 0.725000 0.500000
vt 0.750000 0.500000
vt 0.375000 0.312500
vt 0.458333 0.312500
vt 0.375000 0.688440
vt 0.458333 0.688440
vt 0.541667 0.312500
vt 0.541667 0.688440
vt 0.625000 0.312500
vt 0.625000 0.688440
vt 0.250000 0.500000
vt 0.275000 0.500000
vt 0.500000 1.000000
vt 0.300000 0.500000
vt 0.325000 0.500000
vt 0.350000 0.500000
vt 0.375000 0.500000
vt 0.400000 0.500000
vt 0.425000 0.500000
vt 0.450000 0.500000
vt 0.475000 0.500000
vt 0.500000 0.500000
vt 0.525000 0.500000
vt 0.550000 0.500000
vt 0.575000 0.500000
vt 0.600000 0.500000
vt 0.625000 0.500000
vt 0.650000 0.500000
vt 0.675000 0.500000
vt 0.700000 0.500000
vt 0.725000 0.500000
vt 0.750000 0.500000
vt 0.375000 0.312500
vt 0.458333 0.312500
vt 0.375000 0.688440
vt 0.458333 0.688440
vt 0.541667 0.312500
vt 0.541667 0.688440
vt 0.625000 0.312500
vt 0.625000 0.688440
vt 0.250000 0.500000
vt 0.275000 0.500000
vt 0.500000 1.000000
vt 0.300000 0.500000
vt 0.325000 0.500000
vt 0.350000 0.500000
vt 0.375000 0.500000
vt 0.400000 0.500000
vt 0.425000 0.500000
vt 0.450000 0.500000
vt 0.475000 0.500000
vt 0.500000 0.500000
vt 0.525000 0.500000
vt 0.550000 0.500000
vt 0.575000 0.500000
vt 0.600000 0.500000
vt 0.625000 0.500000
vt 0.650000 0.500000
vt 0.675000 0.500000
vt 0.700000 0.500000
vt 0.725000 0.500000
vt 0.750000 0.500000
vn 0.000000 -1.000000 0.000000
vn 0.000000 -1.000000 0.000000
vn 0.000000 -1.000000 0.000000
vn 0.000000 -1.000000 0.000000
vn 0.000000 -1.000000 0.000000
vn 0.000000 -1.000000 0.000000
vn 0.866025 0.500001 -0.000000
vn 0.866025 0.500001 -0.000000
vn 0.866026 0.499999 -0.000000
vn 0.866026 0.499999 -0.000000
vn 0.866025 0.500001 -0.000000
vn 0.866026 0.499999 -0.000000
vn -0.866026 0.500000 -0.000000
vn -0.866026 0.500000 -0.000000
vn -0.866026 0.499999 -0.000000
vn -0.866026 0.499999 -0.000000
vn -0.866026 0.500000 -0.000000
vn -0.866026 0.499999 -0.000000
vn -0.298484 0.918642 0.258852
vn -0.567755 0.781441 0.258852
vn 0.000009 -0.000002 1.000000
vn -0.567755 0.781441 0.258852
vn -0.781447 0.567747 0.258851
vn 0.000009 -0.000002 1.000000
vn -0.781447 0.567747 0.258851
vn -0.918642 0.298486 0.258851
vn 0.000009 -0.000002 1.000000
vn -0.918642 0.298486 0.258851
vn -0.965917 0.000000 0.258851
vn 0.000009 -0.000002 1.000000
vn -0.965917 0.000000 0.258851
vn -0.918642 -0.298486 0.258851
vn 0.000009 -0.000002 1.000000
vn -0.918642 -0.298486 0.258851
vn -0.781447 -0.567747 0.258851
vn 0.000009 -0.000002 1.000000
vn -0.781447 -0.567747 0.258851
vn -0.567754 -0.781442 0.258852
vn 0.000009 -0.000002 1.000000
vn -0.567754 -0.781442 0.258852
vn -0.298485 -0.918642 0.258852
vn 0.000009 -0.000002 1.000000
vn -0.298485 -0.918642 0.258852
vn 0.000000 -0.965917 0.258853
vn 0.000009 -0.000002 1.000000
vn 0.000000 -0.965917 0.258853
vn 0.298486 -0.918641 0.258853
vn 0.000009 -0.000002 1.000000
vn 0.298486 -0.918641 0.258853
vn 0.567752 -0.781443 0.258853
vn 0.000009 -0.000002 1.000000
vn 0.567752 -0.781443 0.258853
vn 0.781443 -0.567752 0.258854
vn 0.000009 -0.000002 1.000000
vn 0.781443 -0.567752 0.258854
vn 0.918639 -0.298490 0.258854
vn 0.000009 -0.000002 1.000000
vn 0.918639 -0.298490 0.258854
vn 0.965917 0.000000 0.258854
vn 0.000009 -0.000002 1.000000
vn 0.965917 0.000000 0.258854
vn 0.918640 0.298490 0.258853
vn 0.000009 -0.000002 1.000000
vn 0.918640 0.298490 0.258853
vn 0.781443 0.567752 0.258854
vn 0.000009 -0.000002 1.000000
vn 0.781443 0.567752 0.258854
vn 0.567752 0.781443 0.258853
vn 0.000009 -0.000002 1.000000
vn 0.567752 0.781443 0.258853
vn 0.298486 0.918641 0.258853
vn 0.000009 -0.000002 1.000000
vn 0.298486 0.918641 0.258853
vn 0.000002 0.965917 0.258853
vn 0.000009 -0.000002 1.000000
vn 0.000002 0.965917 0.258853
vn -0.298484 0.918642 0.258852
vn 0.000009 -0.000002 1.000000
vn 0.000000 -1.000000 0.000000
vn 0.000000 -1.000000 0.000000
vn 0.000000 -1.000000 0.000000
vn 0.000000 -1.000000 0.000000
vn 0.000000 -1.000000 0.000000
vn 0.000000 -1.000000 0.000000
vn 0.866025 0.500000 -0.000000
vn 0.866025 0.500000 -0.000000
vn 0.866026 0.500000 -0.000000
vn 0.866026 0.500000 -0.000000
vn 0.866025 0.500000 -0.000000
vn 0.866026 0.500000 -0.000000
vn -0.866025 0.500000 -0.000000
vn -0.866025 0.500000 -0.000000
vn -0.866026 0.500000 -0.000000
vn -0.866026 0.500000 -0.000000
vn -0.866025 0.500000 -0.000000
vn -0.866026 0.500000 -0.000000
vn -0.305910 0.941498 0.141421
vn -0.581879 0.800885 0.141421
vn 0.000000 0.000000 1.000000
vn -0.581879 0.800885 0.141421
vn -0.800887 0.581876 0.141421
vn 0.000000 0.000000 1.000000
vn -0.800887 0.581876 0.141421
vn -0.941497 0.305913 0.141421
vn 0.000000 0.000000 1.000000
vn -0.941497 0.305913 0.141421
vn -0.989950 0.000000 0.141421
vn 0.000000 0.000000 1.000000
vn -0.989950 0.000000 0.141421
vn -0.941497 -0.305913 0.141421
vn 0.000000 0.000000 1.000000
vn -0.941497 -0.305913 0.141421
vn -0.800887 -0.581877 0.141421
vn 0.000000 0.000000 1.000000
vn -0.800887 -0.581877 0.141421
vn -0.581879 -0.800885 0.141421
vn 0.000000 0.000000 1.000000
vn -0.581879 -0.800885 0.141421
vn -0.305912 -0.941498 0.141421
vn 0.000000 0.000000 1.000000
vn -0.305912 -0.941498 0.141421
vn 0.000000 -0.989950 0.141421
vn 0.000000 0.000000 1.000000
vn 0.000000 -0.989950 0.141421
vn 0.305912 -0.941498 0.141421
vn 0.000000 0.000000 1.000000
vn 0.305912 -0.941498 0.141421
vn 0.581877 -0.800887 0.141421
vn 0.000000 0.000000 1.000000
vn 0.581877 -0.800887 0.141421
vn 0.800885 -0.581879 0.141421
vn 0.000000 0.000000 1.000000
vn 0.800885 -0.581879 0.141421
vn 0.941498 -0.305910 0.141421
vn 0.000000 0.000000 1.000000
vn 0.941498 -0.305910 0.141421
vn 0.989950 0.000000 0.141421
vn 0.000000 0.000000 1.000000
vn 0.989950 0.000000 0.141421
vn 0.941498 0.305911 0.141421
vn 0.000000 0.000000 1.000000
vn 0.941498 0.305911 0.141421
vn 0.800885 0.581879 0.141421
vn 0.000000 0.000000 1.000000
vn 0.800885 0.581879 0.141421
vn 0.581877 0.800887 0.141421
vn 0.000000 0.000000 1.000000
vn 0.581877 0.800887 0.141421
vn 0.305911 0.941498 0.141421
vn 0.000000 0.000000 1.000000
vn 0.305911 0.941498 0.141421
vn 0.000002 0.989950 0.141421
vn 0.000000 0.000000 1.000000
vn 0.000002 0.989950 0.141421
vn -0.305910 0.941498 0.141421
vn 0.000000 0.000000 1.000000
vn 0.000000 -1.000000 0.000000
vn 0.000000 -1.000000 0.000000
vn 0.000000 -1.000000 0.000000
vn 0.000000 -1.000000 0.000000
vn 0.000000 -1.000000 0.000000
vn 0.000000 -1.000000 0.000000
vn 0.866026 0.500000 -0.000000
vn 0.866026 0.500000 -0.000000
vn 0.866026 0.500000 -0.000000
vn 0.866026 0.500000 -0.000000
vn 0.866026 0.500000 -0.000000
vn 0.866026 0.500000 -0.000000
vn -0.866025 0.500000 -0.000000
vn -0.866025 0.500000 -0.000000
vn -0.866025 0.500000 -0.000000
vn -0.866025 0.500000 -0.000000
vn -0.866025 0.500000 -0.000000
vn -0.866025 0.500000 -0.000000
vn -0.300715 0.925508 0.230228
vn -0.571995 0.787284 0.230228
vn -0.000006 0.000001 1.000000
vn -0.571995 0.787284 0.230228
vn -0.787284 0.571995 0.230228
vn -0.000006 0.000001 1.000000
vn -0.787284 0.571995 0.230228
vn -0.925508 0.300715 0.230228
vn -0.000006 0.000001 1.000000
vn -0.925508 0.300715 0.230228
vn -0.973137 0.000000 0.230228
vn -0.000006 0.000001 1.000000
vn -0.973137 0.000000 0.230228
vn -0.925508 -0.300715 0.230228
vn -0.000006 0.000001 1.000000
vn -0.925508 -0.300715 0.230228
vn -0.787285 -0.571995 0.230228
vn -0.000006 0.000001 1.000000
vn -0.787285 -0.571995 0.230228
vn -0.571994 -0.787285 0.230228
vn -0.000006 0.000001 1.000000
vn -0.571994 -0.787285 0.230228
vn -0.300714 -0.925509 0.230228
vn -0.000006 0.000001 1.000000
vn -0.300714 -0.925509 0.230228
vn 0.000000 -0.973137 0.230229
vn -0.000006 0.000001 1.000000
vn 0.000000 -0.973137 0.230229
vn 0.300714 -0.925509 0.230228
vn -0.000006 0.000001 1.000000
vn 0.300714 -0.925509 0.230228
vn 0.571994 -0.787285 0.230228
vn -0.000006 0.000001 1.000000
vn 0.571994 -0.787285 0.230228
vn 0.787284 -0.571995 0.230228
vn -0.000006 0.000001 1.000000
vn 0.787284 -0.571995 0.230228
vn 0.925508 -0.300716 0.230228
vn -0.000006 0.000001 1.000000
vn 0.925508 -0.300716 0.230228
vn 0.973137 0.000000 0.230228
vn -0.000006 0.000001 1.000000
vn 0.973137 0.000000 0.230228
vn 0.925508 0.300716 0.230228
vn -0.000006 0.000001 1.000000
vn 0.925508 0.300716 0.230228
vn 0.787284 0.571996 0.230228
vn -0.000006 0.000001 1.000000
vn 0.787284 0.571996 0.230228
vn 0.571995 0.787284 0.230228
vn -0.000006 0.000001 1.000000
vn 0.571995 0.787284 0.230228
vn 0.300715 0.925508 0.230228
vn -0.000006 0.000001 1.000000
vn 0.300715 0.925508 0.230228
vn 0.000001 0.973137 0.230228
vn -0.000006 0.000001 1.000000
vn 0.000001 0.973137 0.230228
vn -0.300715 0.925508 0.230228
vn -0.000006 0.000001 1.000000
vn 0.000000 -1.000000 0.000000
vn 0.000000 -1.000000 0.000000
vn 0.000000 -1.000000 0.000000
vn 0.000000 -1.000000 0.000000
vn 0.000000 -1.000000 0.000000
vn 0.000000 -1.000000 0.000000
vn 0.866025 0.500000 -0.000000
vn 0.866025 0.500000 -0.000000
vn 0.866025 0.500000 -0.000000
vn 0.866025 0.500000 -0.000000
vn 0.866025 0.500000 -0.000000
vn 0.866025 0.500000 -0.000000
vn -0.866025 0.500000 -0.000000
vn -0.866025 0.500000 -0.000000
vn -0.866025 0.500000 -0.000000
vn -0.866025 0.500000 -0.000000
vn -0.866025 0.500000 -0.000000
vn -0.866025 0.500000 -0.000000
vn -0.300714 0.925509 0.230228
vn -0.571995 0.787284 0.230228
vn -0.000005 0.000002 1.000000
vn -0.571995 0.787284 0.230228
vn -0.787285 0.571995 0.230228
vn -0.000005 0.000002 1.000000
vn -0.787285 0.571995 0.230228
vn -0.925508 0.300715 0.230228
vn -0.000005 0.000002 1.000000
vn -0.925508 0.300715 0.230228
vn -0.973137 0.000000 0.230228
vn -0.000005 0.000002 1.000000
vn -0.973137 0.000000 0.230228
vn -0.925508 -0.300715 0.230228
vn -0.000005 0.000002 1.000000
vn -0.925508 -0.300715 0.230228
vn -0.787284 -0.571995 0.230228
vn -0.000005 0.000002 1.000000
vn -0.787284 -0.571995 0.230228
vn -0.571995 -0.787284 0.230228
vn -0.000005 0.000002 1.000000
vn -0.571995 -0.787284 0.230228
vn -0.300716 -0.925508 0.230228
vn -0.000005 0.000002 1.000000
vn -0.300716 -0.925508 0.230228
vn 0.000000 -0.973137 0.230228
vn -0.000005 0.000002 1.000000
vn 0.000000 -0.973137 0.230228
vn 0.300716 -0.925508 0.230228
vn -0.000005 0.000002 1.000000
vn 0.300716 -0.925508 0.230228
vn 0.571995 -0.787284 0.230228
vn -0.000005 0.000002 1.000000
vn 0.571995 -0.787284 0.230228
vn 0.787284 -0.571996 0.230228
vn -0.000005 0.000002 1.000000
vn 0.787284 -0.571996 0.230228
vn 0.925508 -0.300716 0.230228
vn -0.000005 0.000002 1.000000
vn 0.925508 -0.300716 0.230228
vn 0.973137 0.000000 0.230229
vn -0.000005 0.000002 1.000000
vn 0.973137 0.000000 0.230229
vn 0.925508 0.300716 0.230229
vn -0.000005 0.000002 1.000000
vn 0.925508 0.300716 0.230229
vn 0.787284 0.571995 0.230228
vn -0.000005 0.000002 1.000000
vn 0.787284 0.571995 0.230228
vn 0.571995 0.787284 0.230228
vn -0.000005 0.000002 1.000000
vn 0.571995 0.787284 0.230228
vn 0.300715 0.925508 0.230228
vn -0.000005 0.000002 1.000000
vn 0.300715 0.925508 0.230228
vn 0.000001 0.973137 0.230228
vn -0.000005 0.000002 1.000000
vn 0.000001 0.973137 0.230228
vn -0.300714 0.925509 0.230228
vn -0.000005 0.000002 1.000000
vn 0.000000 -1.000000 0.000000
vn 0.000000 -1.000000 0.000000
vn 0.000000 -1.000000 0.000000
vn 0.000000 -1.000000 0.000000
vn 0.000000 -1.000000 0.000000
vn 0.000000 -1.000000 0.000000
vn 0.866026 0.500000 -0.000000
vn 0.866026 0.500000 -0.000000
vn 0.866026 0.499999 -0.000000
vn 0.866026 0.499999 -0.000000
vn 0.866026 0.500000 -0.000000
vn 0.866026 0.499999 -0.000000
vn -0.866026 0.500000 -0.000000
vn -0.866026 0.500000 -0.000000
vn -0.866026 0.499999 -0.000000
vn -0.866026 0.499999 -0.000000
vn -0.866026 0.500000 -0.000000
vn -0.866026 0.499999 -0.000000
vn -0.298484 0.918642 0.258853
vn -0.567755 0.781441 0.258852
vn 0.000007 0.000000 1.000000
vn -0.567755 0.781441 0.258852
vn -0.781446 0.567749 0.258851
vn 0.000007 0.000000 1.000000
vn -0.781446 0.567749 0.258851
vn -0.918642 0.298486 0.258851
vn 0.000007 0.000000 1.000000
vn -0.918642 0.298486 0.258851
vn -0.965917 0.000000 0.258851
vn 0.000007 0.000000 1.000000
vn -0.965917 0.000000 0.258851
vn -0.918642 -0.298486 0.258851
vn 0.000007 0.000000 1.000000
vn -0.918642 -0.298486 0.258851
vn -0.781446 -0.567749 0.258851
vn 0.000007 0.000000 1.000000
vn -0.781446 -0.567749 0.258851
vn -0.567754 -0.781442 0.258852
vn 0.000007 0.000000 1.000000
vn -0.567754 -0.781442 0.258852
vn -0.298485 -0.918641 0.258853
vn 0.000007 0.000000 1.000000
vn -0.298485 -0.918641 0.258853
vn 0.000000 -0.965917 0.258853
vn 0.000007 0.000000 1.000000
vn 0.000000 -0.965917 0.258853
vn 0.298487 -0.918641 0.258853
vn 0.000007 0.000000 1.000000
vn 0.298487 -0.918641 0.258853
vn 0.567752 -0.781443 0.258853
vn 0.000007 0.000000 1.000000
vn 0.567752 -0.781443 0.258853
vn 0.781442 -0.567753 0.258853
vn 0.000007 0.000000 1.000000
vn 0.781442 -0.567753 0.258853
vn 0.918640 -0.298488 0.258854
vn 0.000007 0.000000 1.000000
vn 0.918640 -0.298488 0.258854
vn 0.965916 0.000000 0.258854
vn 0.000007 0.000000 1.000000
vn 0.965916 0.000000 0.258854
vn 0.918640 0.298488 0.258854
vn 0.000007 0.000000 1.000000
vn 0.918640 0.298488 0.258854
vn 0.781442 0.567753 0.258853
vn 0.000007 0.000000 1.000000
vn 0.781442 0.567753 0.258853
vn 0.567752 0.781443 0.258853
vn 0.000007 0.000000 1.000000
vn 0.567752 0.781443 0.258853
vn 0.298486 0.918641 0.258853
vn 0.000007 0.000000 1.000000
vn 0.298486 0.918641 0.258853
vn 0.000002 0.965917 0.258853
vn 0.000007 0.000000 1.000000
vn 0.000002 0.965917 0.258853
vn -0.298484 0.918642 0.258853
vn 0.000007 0.000000 1.000000
s off
g polySurface7
usemtl initialShadingGroup
f 1/1/1 2/2/2 4/3/3
f 4/3/4 2/2/5 5/4/6
f 2/2/7 3/5/8 5/4/9
f 5/4/10 3/5/11 6/6/12
f 3/5/13 1/7/14 6/6/15
f 6/6/16 1/7/17 4/8/18
f 7/9/19 8/10/20 27/11/21
f 8/10/22 9/12/23 27/11/24
f 9/12/25 10/13/26 27/11/27
f 10/13/28 11/14/29 27/11/30
f 11/14/31 12/15/32 27/11/33
f 12/15/34 13/16/35 27/11/36
f 13/16/37 14/17/38 27/11/39
f 14/17/40 15/18/41 27/11/42
f 15/18/43 16/19/44 27/11/45
f 16/19/46 17/20/47 27/11/48
f 17/20/49 18/21/50 27/11/51
f 18/21/52 19/22/53 27/11/54
f 19/22/55 20/23/56 27/11/57
f 20/23/58 21/24/59 27/11/60
f 21/24/61 22/25/62 27/11/63
f 22/25/64 23/26/65 27/11/66
f 23/26/67 24/27/68 27/11/69
f 24/27/70 25/28/71 27/11/72
f 25/28/73 26/29/74 27/11/75
f 26/29/76 7/30/77 27/11/78
f 28/31/79 29/32/80 31/33/81
f 31/33/82 29/32/83 32/34/84
f 29/32/85 30/35/86 32/34/87
f 32/34/88 30/35/89 33/36/90
f 30/35/91 28/37/92 33/36/93
f 33/36/94 28/37/95 31/38/96
f 34/39/97 35/40/98 54/41/99
f 35/40/100 36/42/101 54/41/102
f 36/42/103 37/43/104 54/41/105
f 37/43/106 38/44/107 54/41/108
f 38/44/109 39/45/110 54/41/111
f 39/45/112 40/46/113 54/41/114
f 40/46/115 41/47/116 54/41/117
f 41/47/118 42/48/119 54/41/120
f 42/48/121 43/49/122 54/41/123
f 43/49/124 44/50/125 54/41/126
f 44/50/127 45/51/128 54/41/129
f 45/51/130 46/52/131 54/41/132
f 46/52/133 47/53/134 54/41/135
f 47/53/136 48/54/137 54/41/138
f 48/54/139 49/55/140 54/41/141
f 49/55/142 50/56/143 54/41/144
f 50/56/145 51/57/146 54/41/147
f 51/57/148 52/58/149 54/41/150
f 52/58/151 53/59/152 54/41/153
f 53/59/154 34/60/155 54/41/156
f 55/61/157 56/62/158 58/63/159
f 58/63/160 56/62/161 59/64/162
f 56/62/163 57/65/164 59/64/165
f 59/64/166 57/65/167 60/66/168
f 57/65/169 55/67/170 60/66/171
f 60/66/172 55/67/173 58/68/174
f 61/69/175 62/70/176 81/71/177
f 62/70/178 63/72/179 81/71/180
f 63/72/181 64/73/182 81/71/183
f 64/73/184 65/74/185 81/71/186
f 65/74/187 66/75/188 81/71/189
f 66/75/190 67/76/191 81/71/192
f 67/76/193 68/77/194 81/71/195
f 68/77/196 69/78/197 81/71/198
f 69/78/199 70/79/200 81/71/201
f 70/79/202 71/80/203 81/71/204
f 71/80/205 72/81/206 81/71/207
f 72/81/208 73/82/209 81/71/210
f 73/82/211 74/83/212 81/71/213
f 74/83/214 75/84/215 81/71/216
f 75/84/217 76/85/218 81/71/219
f 76/85/220 77/86/221 81/71/222
f 77/86/223 78/87/224 81/71/225
f 78/87/226 79/88/227 81/71/228
f 79/88/229 80/89/230 81/71/231
f 80/89/232 61/90/233 81/71/234
f 82/91/235 83/92/236 85/93/237
f 85/93/238 83/92/239 86/94/240
f 83/92/241 84/95/242 86/94/243
f 86/94/244 84/95/245 87/96/246
f 84/95/247 82/97/248 87/96/249
f 87/96/250 82/97/251 85/98/252
f 88/99/253 89/100/254 108/101/255
f 89/100/256 90/102/257 108/101/258
f 90/102/259 91/103/260 108/101/261
f 91/103/262 92/104/263 108/101/264
f 92/104/265 93/105/266 108/101/267
f 93/105/268 94/106/269 108/101/270
f 94/106/271 95/107/272 108/101/273
f 95/107/274 96/108/275 108/101/276
f 96/108/277 97/109/278 108/101/279
f 97/109/280 98/110/281 108/101/282
f 98/110/283 99/111/284 108/101/285
f 99/111/286 100/112/287 108/101/288
f 100/112/289 101/113/290 108/101/291
f 101/113/292 102/114/293 108/101/294
f 102/114/295 103/115/296 108/101/297
f 103/115/298 104/116/299 108/101/300
f 104/116/301 105/117/302 108/101/303
f 105/117/304 106/118/305 108/101/306
f 106/118/307 107/119/308 108/101/309
f 107/119/310 88/120/311 108/101/312
f 109/121/313 110/122/314 112/123/315
f 112/123/316 110/122/317 113/124/318
f 110/122/319 111/125/320 113/124/321
f 113/124/322 111/125/323 114/126/324
f 111/125/325 109/127/326 114/126/327
f 114/126/328 109/127/329 112/128/330
f 115/129/331 116/130/332 135/131/333
f 116/130/334 117/132/335 135/131/336
f 117/132/337 118/133/338 135/131/339
f 118/133/340 119/134/341 135/131/342
f 119/134/343 120/135/344 135/131/345
f 120/135/346 121/136/347 135/131/348
f 121/136/349 122/137/350 135/131/351
f 122/137/352 123/138/353 135/131/354
f 123/138/355 124/139/356 135/131/357
f 124/139/358 125/140/359 135/131/360
f 125/140/361 126/141/362 135/131/363
f 126/141/364 127/142/365 135/131/366
f 127/142/367 128/143/368 135/131/369
f 128/143/370 129/144/371 135/131/372
f 129/144/373 130/145/374 135/131/375
f 130/145/376 131/146/377 135/131/378
f 131/146/379 132/147/380 135/131/381
f 132/147/382 133/148/383 135/131/384
f 133/148/385 134/149/386 135/131/387
f 134/149/388 115/150/389 135/131/390
